{"title":"Comedy Nights with Kapil - Kapil ke Ghar aayi beauty Queens - 23","uid":9768828,"size":348200579,"categoryP":"video","categoryS":"tv_shows","magnet":"?xt=urn:btih:88f294cae95f9417de16eb03a18fa7ed76a748c4&amp;dn=Comedy+Nights+with+Kapil+-+Kapil+ke+Ghar+aayi+beauty+Queens+-+23&amp;tr=udp%3A%2F%2Ftracker.openbittorrent.com%3A80&amp;tr=udp%3A%2F%2Fopen.demonii.com%3A1337&amp;tr=udp%3A%2F%2Ftracker.coppersurfer.tk%3A6969&amp;tr=udp%3A%2F%2Fexodus.desync.com%3A6969","seeders":1,"leechers":0,"uploader":"dkt369","files":1,"time":1394923678,"description":"Plot\nKapil starts the show with inviting Malliaka Arora Khan and Kiran Kher, the judges of the talent show - India's Got Talent Season 5 on the stage of Comedy Nights. Later, Kapil's family and his neighbors join them on the stage one by one and create umpteen funny situations and has the audience splitting with laughter. Watch the episode and enjoy the fun. \n\nGeneral \nComplete name : Comedy Nights with Kapil - Kapil ke Ghar aayi beauty Queens - 23rd February 2014.mp4 \nFormat : MPEG-4 \nFormat profile : Base Media / Version 2 \nCodec ID : mp42 \nFile size : 332 MiB \nDuration : 1h 7mn \nOverall bit rate mode : Variable \nOverall bit rate : 691 Kbps \nEncoded date : UTC 2014-02-23 15:50:41 \nTagged date : UTC 2014-02-23 15:50:41 \ngsst : 0 \ngstd : 4029335 \ngssd : BADC23403HH1393748922867246 \ngshh : r11---sn-cvh7zn7y.googlevideo.com \n\nVideo \nID : 1 \nFormat : AVC \nFormat/Info : Advanced Video Codec \nFormat profile : &lt;a class=&quot;__cf_email__&quot; href=&quot;/cdn-cgi/l/email-protection&quot; data-cfemail=&quot;27654654424b4e4942676b140917&quot;&gt;[email&amp;#160;protected]&lt;/a&gt;&lt;script cf-hash='f9e31' type=&quot;text/javascript&quot;&gt;\n/* &lt;![CDATA[ */!function(){try{var t=&quot;currentScript&quot;in document?document.currentScript:function(){for(var t=document.getElementsByTagName(&quot;script&quot;),e=t.length;e--;)if(t[e].getAttribute(&quot;cf-hash&quot;))return t[e]}();if(t&amp;&amp;t.previousSibling){var e,r,n,i,c=t.previousSibling,a=c.getAttribute(&quot;data-cfemail&quot;);if(a){for(e=&quot;&quot;,r=parseInt(a.substr(0,2),16),n=2;a.length-n;n+=2)i=parseInt(a.substr(n,2),16)^r,e+=String.fromCharCode(i);e=document.createTextNode(e),c.parentNode.replaceChild(e,c)}}}catch(u){}}();/* ]]&gt; */&lt;/script&gt; \nFormat settings, CABAC : No \nFormat settings, ReFrames : 1 frame \nCodec ID : avc1 \nCodec ID/Info : Advanced Video Coding \nDuration : 1h 7mn \nBit rate : 593 Kbps \nMaximum bit rate : 1 254 Kbps \nWidth : 640 pixels \nHeight : 360 pixels \nDisplay aspect ratio : 16:9 \nOriginal display aspect ratio : 16:9 \nFrame rate mode : Constant \nFrame rate : 25.000 fps \nColor space : YUV \nChroma subsampling : 4:2:0 \nBit depth : 8 bits \nScan type : Progressive \nBits/(Pixel*Frame) : 0.103 \nStream size : 285 MiB (86%) \nTagged date : UTC 2014-02-23 15:51:21 \n\nAudio \nID : 2 \nFormat : AAC \nFormat/Info : Advanced Audio Codec \nFormat profile : LC \nCodec ID : 40 \nDuration : 1h 7mn \nBit rate mode : Variable \nBit rate : 96.0 Kbps \nMaximum bit rate : 101 Kbps \nChannel(s) : 2 channels \nChannel positions : Front: L R \nSampling rate : 44.1 KHz \nCompression mode : Lossy \nStream size : 46.1 MiB (14%) \nTitle : IsoMedia File Produced by Google, 5-11-2011 \nEncoded date : UTC 2014-02-23 15:51:03 \nTagged date : UTC 2014-02-23 15:51:21","torrent":{"xt":"urn:btih:88f294cae95f9417de16eb03a18fa7ed76a748c4","amp;dn":"Comedy+Nights+with+Kapil+-+Kapil+ke+Ghar+aayi+beauty+Queens+-+23","amp;tr":["udp%3A%2F%2Ftracker.openbittorrent.com%3A80","udp%3A%2F%2Fopen.demonii.com%3A1337","udp%3A%2F%2Ftracker.coppersurfer.tk%3A6969","udp%3A%2F%2Fexodus.desync.com%3A6969"],"infoHash":"88f294cae95f9417de16eb03a18fa7ed76a748c4","infoHashBuffer":{"type":"Buffer","data":[136,242,148,202,233,95,148,23,222,22,235,3,161,143,167,237,118,167,72,196]},"announce":[],"urlList":[]}}